Coordinates
version=1
nRows=6
nColumns=36
inDegrees=yes

Units are S.I. units (second, meters, Newtons, ...)
If the header above contains a line with 'inDegrees', this indicates whether rotational values are in degrees (yes) or radians (no).

endheader
time	pelvis_tilt	pelvis_list	pelvis_rotation	pelvis_tx	pelvis_ty	pelvis_tz	hip_flexion_r	hip_adduction_r	hip_rotation_r	knee_angle_r	knee_angle_r_beta	ankle_angle_r	subtalar_angle_r	mtp_angle_r	hip_flexion_l	hip_adduction_l	hip_rotation_l	knee_angle_l	knee_angle_l_beta	ankle_angle_l	subtalar_angle_l	mtp_angle_l	lumbar_extension	lumbar_bending	lumbar_rotation	arm_flex_r	arm_add_r	arm_rot_r	elbow_flex_r	pro_sup_r	arm_flex_l	arm_add_l	arm_rot_l	elbow_flex_l	pro_sup_l
      6.75000000	    -18.91769329	      1.14349192	    -11.53780333	     -0.31830808	      1.10098752	     -0.53536649	     42.16699044	      0.31523462	      8.47874017	     26.97212110	      0.47075232	      2.72457046	     -5.05363846	     -7.49999987	     31.31824850	    -22.98229105	    -22.45203661	     23.73004816	      0.41416747	      7.12848595	     17.30530096	     -7.49999987	    -22.72422636	      0.52780670	     11.15343791	     43.94975658	    -22.30685520	     23.42752988	    108.93231815	    101.20529122	     35.23303309	     -6.57047270	     17.94739333	    106.73554646	    108.17175810
      6.76000000	    -18.07459613	      1.02134806	    -11.33512336	     -0.31306527	      1.10559814	     -0.53869079	     40.40081765	     -0.14871782	      8.33590195	     25.85143094	      0.45119259	      2.54805752	     -4.77183407	     -7.49999987	     29.60128916	    -22.26322136	    -22.44547442	     22.48562352	      0.39244816	      6.79832826	     17.24341209	     -7.49999987	    -22.33044712	      0.78513047	     10.90971849	     41.49034231	    -22.47595198	     22.92220389	    109.61092607	    101.37173987	     33.19399044	     -6.48731602	     18.02317085	    107.07857533	    108.28850308
      6.77000000	    -17.16272166	      0.90849387	    -11.09272146	     -0.30782683	      1.11019414	     -0.54220764	     38.54269335	     -0.64990738	      8.24157263	     24.70072655	      0.43110901	      2.38561514	     -4.42211205	     -7.49999987	     27.80655713	    -21.46617547	    -22.27784996	     21.15956460	      0.36930407	      6.39479128	     16.94580406	     -7.49999987	    -21.99880471	      0.99142911	     10.76605754	     38.92535967	    -22.72671758	     22.17572801	    110.37692696	    101.65271931	     31.36605319	     -6.41212179	     18.42002809	    107.23247999	    108.42589241
      6.78000000	    -16.44257038	      0.71998956	    -10.77406239	     -0.30267388	      1.11429039	     -0.54587996	     36.84295037	     -1.09704411	      7.97667166	     23.49881482	      0.41013169	      2.15296369	     -4.10126026	     -7.49999987	     26.33004509	    -20.81062987	    -21.97488274	     20.00187569	      0.34909859	      6.19189433	     16.96029647	     -7.49999987	    -21.42518771	      1.37268525	     10.28605876	     36.59128620	    -22.76578788	     21.75073955	    110.82047050	    101.73838502	     29.30552578	     -6.53879343	     18.46225465	    107.64392292	    108.48482756
      6.79000000	    -15.42705293	      0.52479999	    -10.45840224	     -0.29737410	      1.11869482	     -0.54970291	     34.82377771	     -1.60975879	      7.57908698	     22.28568984	      0.38895866	      2.01282947	     -3.66936900	     -7.49999987	     24.48688415	    -20.08216038	    -21.67660303	     18.75093824	      0.32726561	      5.77301070	     16.55364636	     -7.49999987	    -21.21884729	      1.69454693	      9.89116194	     34.29358553	    -22.92026232	     21.23983099	    111.39263763	    101.89104087	     27.47157405	     -6.48710567	     18.58672104	    107.89966190	    108.54131932
      6.80000000	    -14.77501944	      0.30246842	    -10.18081641	     -0.29233681	      1.12230786	     -0.55331749	     33.18605967	     -1.95235766	      7.33705978	     21.08272018	      0.36796288	      1.80321438	     -3.29052456	     -7.49999987	     23.09388038	    -19.53971327	    -21.38686868	     17.64802538	      0.30801615	      5.59172992	     16.52794672	     -7.49999987	    -20.60947920	      2.10321553	      9.44118851	     32.04059722	    -22.93638919	     20.89377025	    111.85467672	    101.96383223	     25.45832990	     -6.47769755	     18.50143777	    108.31021939	    108.58675649
